<svg xmlns="http://www.w3.org/2000/svg" width="512" height="512" viewBox="0 0 512 512" style="overflow: visible;" data-svgdocument="" id="_lozZXmrQ4Bjc2v8Jjk5tP" class="fl-svgdocument" x="0" y="0" overflow="hidden" data-bbox="4.457485801904296 110.13409081015178 503.0850283961915 291.7318183796965"><defs id="_OCOhh_n_vN0Rio0Fz3bQR" transform="matrix(0.7046671509742737, 0, 0, 0.7046671509742737, -48.27040100097656, 116.3647689819336)" data-uid="o_f41ckm5cb_6"><linearGradient id="o_f41ckm5cb_3" x1="0.03%" y1="50.92%" x2="99.97%" y2="49.08%" data-uid="o_f41ckm5cb_7" gradientUnits="objectBoundingBox"><stop id="_BHsq4p1qAd5KargPr_mGY" offset="0%" stop-color="rgb(255, 95, 5)" stop-opacity="1.00" data-uid="o_f41ckm5cb_8"></stop><stop id="_Fil-3fkmygADUM_R7pzLf" offset="100%" stop-color="rgb(148, 83, 229)" stop-opacity="1.00" data-uid="o_f41ckm5cb_9"></stop></linearGradient><linearGradient x1="0%" y1="50%" x2="100%" y2="50%" id="g_-1932658240_7" gradientUnits="objectBoundingBox" data-uid="o_f41ckm5cb_59"><stop offset="0%" stop-color="rgb(255, 95, 5)" stop-opacity="1.00" data-uid="o_f41ckm5cb_60"></stop><stop offset="100%" stop-color="rgb(148, 83, 229)" stop-opacity="1.00" data-uid="o_f41ckm5cb_61"></stop></linearGradient></defs><path id="_tMLbDoPeHYDf8vvgFsJ3A" fill="url(#o_f41ckm5cb_3)" d="M96.897 37.513c1.921 0 3.478-1.558 3.478-3.479c0-1.92-1.557-3.478-3.478-3.478s-3.478 1.558-3.478 3.478  c0 0.422 0.079 0.825 0.217 1.2l-10.153 8.649l-12.864-7.567c0.073-0.297 0.116-0.607 0.116-0.927c0-2.142-1.736-3.878-3.878-3.878  c-0.869 0-1.668 0.289-2.314 0.772L52.92 23.054c0.054-0.22 0.086-0.448 0.086-0.684c0-1.581-1.281-2.861-2.861-2.861  s-2.861 1.281-2.861 2.861c0 0.729 0.275 1.393 0.724 1.898l-5.835 12.488c-0.26-0.045-0.526-0.074-0.8-0.074  c-0.86 0-1.662 0.239-2.351 0.647l-15.438-6.915c0.036-0.225 0.06-0.454 0.06-0.689c0-2.38-1.929-4.309-4.309-4.309  c-2.379 0-4.309 1.929-4.309 4.309s1.929 4.309 4.309 4.309c1.352 0 2.556-0.623 3.346-1.596l14.682 6.576  c-0.384 0.674-0.607 1.452-0.607 2.284c0 0.852 0.293 1.605 0.694 2.29l-8.233 8.237c-1.136-0.811-2.506-1.294-4.003-1.294  c-2.642 0-4.915 1.501-6.082 3.684l-0.096-0.032c-0.001 0.012-0.004 0.023-0.005 0.035L7.553 49.002  c0.016-0.134 0.025-0.271 0.025-0.409c0-1.989-1.612-3.601-3.601-3.601s-3.601 1.612-3.601 3.601s1.612 3.601 3.601 3.601  c1.054 0 1.999-0.455 2.657-1.177l11.723 5.329c-0.005 0.013-0.009 0.025-0.015 0.037l0.056 0.019  c-0.054 0.348-0.108 0.694-0.108 1.055c0 1.954 0.813 3.716 2.115 4.975l-0.017 0.013c0.004 0.005 0.008 0.01 0.012 0.014  l-5.973 8.802c-0.155-0.027-0.314-0.044-0.478-0.044c-1.479 0-2.678 1.198-2.678 2.678c0 1.479 1.199 2.678 2.678 2.678  c1.479 0 2.678-1.199 2.678-2.678c0-0.501-0.14-0.969-0.38-1.37l5.364-7.904l0.71-0.877c0.881 0.407 1.859 0.641 2.894 0.641  c1.902 0 3.629-0.771 4.883-2.016l6.993 4.991c-0.199 0.514-0.334 1.06-0.334 1.641c0 2.548 2.065 4.617 4.617 4.617  c2.159 0 3.965-1.483 4.471-3.482l15.916-4.923c0.977 1.815 2.893 3.05 5.099 3.05c1.273 0 2.447-0.417 3.403-1.114l7.12 6.611  c-0.038 0.193-0.059 0.393-0.059 0.597c0 1.734 1.406 3.14 3.14 3.14s3.139-1.405 3.139-3.14c0-1.733-1.405-3.139-3.139-3.139  c-0.707 0-1.358 0.236-1.883 0.631l-6.811-6.323c0.552-0.887 0.893-1.93 0.893-3.05c0-2.815-1.661-5.16-4.661-5.677V39.104  c1-0.172 1.082-0.478 1.513-0.878l13.332 7.848l11.179 15.655c-0.092 0.23-0.146 0.481-0.146 0.745c0 1.125 0.91 2.037 2.035 2.037  s2.037-0.912 2.037-2.037s-0.913-2.037-2.038-2.037c-0.03 0-0.06 0.003-0.09 0.005L85.094 45.422l9.931-8.459  C95.565 37.31 96.207 37.513 96.897 37.513z M61.07 62.474c0 0.21 0.013 0.416 0.035 0.62l-15.275 4.724  c-0.522-1.975-2.316-3.435-4.458-3.435c-1.123 0-2.114 0.451-2.913 1.113l-7.038-5.022c0.447-0.92 0.717-1.93 0.717-3.017  c0-1.492-0.487-2.871-1.29-3.999l8.233-8.237c0.686 0.401 1.438 0.694 2.291 0.694c1.642 0 3.079-0.857 3.897-2.147l17.222 14.914  C61.609 59.699 61.07 61.022 61.07 62.474z M66 56.797c-1 0.1-1.135 0.273-1.596 0.502l-18.36-15.846  c0.002-0.052-0.023-0.102-0.023-0.154c0-1.485-0.718-2.802-1.806-3.646l5.799-12.428c0.046 0.002 0.088 0.007 0.134 0.007  c0.53 0 1.023-0.147 1.449-0.399l11.621 9.229c-0.151 0.415-0.113 0.861-0.113 1.328c0 1.757 0.895 3.238 2.895 3.715V56.797z" transform="matrix(4.974880719693473, 0, 0, 5.004727655969673, 5.387895299265302, -57.09081835884255)" data-uid="o_f41ckm5cb_13"></path><path text="AKTIE" fill="#ffffff" space="preserve" text-anchor="middle" offset="0.5" font-size="48" font-family="Audiowide" transform="matrix(1.958389058163848, 0, 0, 2.003428800189371, 250.90107433266581, 430.6769563106528)" font-weight="400" font-style="normal" data-uid="o_f41ckm5cb_54" data-fl-textpath="" d="M-45.21828125-30.54L-45.21828125 0L-51.31828125 0L-51.31828125-8.25L-72.73828125-8.25L-72.73828125 0L-78.82828125 0L-78.82828125-16.8Q-78.82828125-20.48 -77.56828125-23.58Q-76.29828125-26.67 -74.04828125-28.9Q-71.79828125-31.13 -68.72828125-32.37Q-65.65828125-33.61 -62.02828125-33.61L-62.02828125-33.61L-48.28828125-33.61Q-47.65828125-33.61 -47.09828125-33.38Q-46.53828125-33.14 -46.10828125-32.72Q-45.68828125-32.3 -45.45828125-31.73Q-45.21828125-31.17 -45.21828125-30.54L-45.21828125-30.54ZM-72.73828125-16.8L-72.73828125-14.34L-51.31828125-14.34L-51.31828125-27.52L-62.02828125-27.52Q-62.30828125-27.52 -63.20828125-27.43Q-64.10828125-27.35 -65.29828125-27.02Q-66.47828125-26.7 -67.78828125-26.02Q-69.10828125-25.34 -70.20828125-24.14Q-71.30828125-22.95 -72.02828124999999-21.15Q-72.73828125-19.36 -72.73828125-16.8L-72.73828125-16.8ZM-20.19359375-16.8L-2.913593749999997 0L-11.563593749999999 0L-25.27359375-13.73L-29.563593750000003-13.73L-29.563593750000003-19.88L-25.27359375-19.88L-11.563593749999999-33.61L-2.913593749999997-33.61L-20.19359375-16.8ZM-32.00359375-33.61L-32.00359375 0L-38.09359375 0L-38.09359375-33.61L-32.00359375-33.61ZM 31.273281249999997-33.61L 31.273281249999997-27.52L 17.84328125-27.52L 17.84328125 0L 11.75328125 0L 11.75328125-27.52L-1.69671875-27.52L-1.69671875-33.61L 31.273281249999997-33.61ZM 41.89484375-33.61L 41.89484375 0L 35.80484375 0L 35.80484375-33.61L 41.89484375-33.61ZM 76.65046875-19.88L 76.65046875-13.73L 57.41046875-13.73L 57.41046875-19.88L 76.65046875-19.88ZM 79.39046875-6.09L 79.39046875 0L 57.41046875 0Q 56.14046875 0  54.64046875-0.45Q 53.14046875-0.89  51.87046875-1.91Q 50.59046875-2.93  49.73046875-4.56Q 48.88046875-6.19  48.88046875-8.55L 48.88046875-8.55L 48.88046875-30.54Q 48.88046875-31.17  49.11046875-31.73Q 49.35046875-32.3  49.76046875-32.72Q 50.17046875-33.14  50.73046875-33.38Q 51.29046875-33.61  51.95046875-33.61L 51.95046875-33.61L 79.39046875-33.61L 79.39046875-27.52L 54.97046875-27.52L 54.97046875-8.55Q 54.97046875-7.36  55.61046875-6.73Q 56.24046875-6.09  57.460468750000004-6.09L 57.460468750000004-6.09L 79.39046875-6.09Z"></path><path text="TECH" fill="url(#g_-1932658240_7)" space="preserve" text-anchor="middle" offset="0.5" font-size="48" font-family="Audiowide" transform="matrix(1.19126774480185, 0, 0, 1.3622576682765102, 249.02869887803953, 493.4752690547962)" font-weight="400" font-style="normal" data-uid="o_f41ckm5cb_55" data-fl-textpath="" d="M-39.8478125-33.61L-39.8478125-27.52L-53.277812499999996-27.52L-53.277812499999996 0L-59.3678125 0L-59.3678125-27.52L-72.8178125-27.52L-72.8178125-33.61L-39.8478125-33.61ZM-7.736249999999998-19.88L-7.736249999999998-13.73L-26.97625-13.73L-26.97625-19.88L-7.736249999999998-19.88ZM-4.996250000000003-6.09L-4.996250000000003 0L-26.97625 0Q-28.24625 0 -29.74625-0.45Q-31.24625-0.89 -32.51625-1.91Q-33.79625-2.93 -34.65625-4.56Q-35.50625-6.19 -35.50625-8.55L-35.50625-8.55L-35.50625-30.54Q-35.50625-31.17 -35.27625-31.73Q-35.03625-32.3 -34.62625-32.72Q-34.21625-33.14 -33.65625-33.38Q-33.09625-33.61 -32.43625-33.61L-32.43625-33.61L-4.996250000000003-33.61L-4.996250000000003-27.52L-29.416249999999998-27.52L-29.416249999999998-8.55Q-29.416249999999998-7.36 -28.776249999999997-6.73Q-28.146250000000002-6.09 -26.92625-6.09L-26.92625-6.09L-4.996250000000003-6.09ZM 30.770625000000003-6.09L 30.770625000000003 0L 8.790625 0Q 7.940625000000001 0  6.970625-0.2Q 6.000624999999999-0.4  5.050625-0.82Q 4.100625-1.24  3.230625-1.91Q 2.3706250000000004-2.58  1.7006249999999996-3.53Q 1.0306250000000001-4.48  0.6306250000000002-5.73Q 0.23062499999999986-6.98  0.23062499999999986-8.55L 0.23062499999999986-8.55L 0.23062499999999986-25.05Q 0.23062499999999986-25.9  0.43062500000000004-26.87Q 0.6306250000000002-27.84  1.0506250000000001-28.79Q 1.4806249999999999-29.74  2.1606249999999996-30.61Q 2.840625-31.48  3.7806249999999997-32.14Q 4.730625-32.81  5.980625-33.21Q 7.220625-33.61  8.790625-33.61L 8.790625-33.61L 30.770625000000003-33.61L 30.770625000000003-27.52L 8.790625-27.52Q 7.590624999999999-27.52  6.960625-26.88Q 6.3306249999999995-26.25  6.3306249999999995-25.01L 6.3306249999999995-25.01L 6.3306249999999995-8.55Q 6.3306249999999995-7.38  6.970625-6.74Q 7.620625-6.09  8.790625-6.09L 8.790625-6.09L 30.770625000000003-6.09ZM 42.68-33.61L 42.68-19.88L 64.08-19.88L 64.08-33.61L 70.17-33.61L 70.17 0L 64.08 0L 64.08-13.73L 42.68-13.73L 42.68 0L 36.59 0L 36.59-33.61L 42.68-33.61Z"></path></svg>